<?xml version="1.0" encoding="utf-8"?>
<!-- Generator: Adobe Illustrator 17.0.0, SVG Export Plug-In . SVG Version: 6.00 Build 0)  -->
<!DOCTYPE svg PUBLIC "-//W3C//DTD SVG 1.1//EN" "http://www.w3.org/Graphics/SVG/1.1/DTD/svg11.dtd">
<svg version="1.1" id="Layer_1" xmlns="http://www.w3.org/2000/svg" xmlns:xlink="http://www.w3.org/1999/xlink" x="0px" y="0px"
	 viewBox="0 0 165.146 165.146" enable-background="new 0 0 165.146 165.146"
	 xml:space="preserve">
<path fill="#FFFFFF" d="M240.71,103.724c0-81.597-66.147-147.744-147.737-147.744c-81.595,0-147.742,66.147-147.742,147.744
	c0,81.593,66.148,147.74,147.742,147.74"/>
<path fill-rule="evenodd" clip-rule="evenodd" fill="#008348" d="M82.575,0c45.591,0,82.571,36.976,82.571,82.571
	c0,45.599-36.98,82.575-82.571,82.575C36.98,165.146,0,128.171,0,82.571C0,36.976,36.98,0,82.575,0 M141.474,94.035
	c-5.352,27.65-29.692,48.537-58.898,48.537c-29.278,0-53.657-20.98-58.932-48.719l14.322-2.371h0.139
	c4.143,20.773,22.476,36.435,44.471,36.435c21.931,0,40.231-15.582,44.433-36.278L141.474,94.035z"/>
<text transform="matrix(1 0 0 1 159.0765 337.9246)" fill="#008348" font-family="'ArialMT'" font-size="9.134">Pantone: 356 CVC</text>
<text transform="matrix(1 0 0 1 159.0765 358.2127)" fill="#008348" font-family="'ArialMT'" font-size="9.134">CMYK: 100 / 0 / 91 / 27</text>
<text transform="matrix(1 0 0 1 159.0765 378.5008)" fill="#008348" font-family="'ArialMT'" font-size="9.134">RGB:  0 / 1</text>
<text transform="matrix(1 0 0 1 203.5795 378.5008)" fill="#008348" font-family="'ArialMT'" font-size="9.134">13 / 63</text>
<text transform="matrix(1 0 0 1 408.7133 337.9949)" font-family="'ArialMT'" font-size="9.134">CMYK: 0 / 0 / 0 / 100</text>
<text transform="matrix(1 0 0 1 408.7133 358.284)" font-family="'ArialMT'" font-size="9.134">RGB: 31 / 26 / 23</text>
<path fill-rule="evenodd" clip-rule="evenodd" fill="#008348" d="M164.118,303.871h34.733c2.773,0,5.042,2.21,5.042,4.91v3.273
	c0,2.701-2.269,4.91-5.042,4.91h-34.733c-2.773,0-5.042-2.21-5.042-4.91v-3.273C159.077,306.081,161.345,303.871,164.118,303.871"/>
<path fill-rule="evenodd" clip-rule="evenodd" d="M413.755,303.926h34.733c2.773,0,5.042,2.21,5.042,4.91v3.274
	c0,2.701-2.269,4.91-5.042,4.91h-34.733c-2.773,0-5.042-2.21-5.042-4.91v-3.274C408.713,306.135,410.982,303.926,413.755,303.926z"
	/>
<path fill="none" stroke="#000000" stroke-width="0.216" stroke-miterlimit="22.9256" d="M413.755,303.926h34.733
	c2.773,0,5.042,2.21,5.042,4.91v3.274c0,2.701-2.269,4.91-5.042,4.91h-34.733c-2.773,0-5.042-2.21-5.042-4.91v-3.274
	C408.713,306.135,410.982,303.926,413.755,303.926z"/>
</svg>
