<?xml version="1.0" encoding="utf-8"?>
<!-- Generator: Adobe Illustrator 17.0.0, SVG Export Plug-In . SVG Version: 6.00 Build 0)  -->
<!DOCTYPE svg PUBLIC "-//W3C//DTD SVG 1.1//EN" "http://www.w3.org/Graphics/SVG/1.1/DTD/svg11.dtd">
<svg version="1.1" id="Layer_1" xmlns="http://www.w3.org/2000/svg" xmlns:xlink="http://www.w3.org/1999/xlink" x="0px" y="0px"
	 width="165.146px" height="165.146px" viewBox="0 0 165.146 165.146" enable-background="new 0 0 165.146 165.146"
	 xml:space="preserve">
<path fill="#FFFFFF" d="M240.71,103.724c0-81.597-66.147-147.744-147.737-147.744c-81.595,0-147.742,66.147-147.742,147.744
	c0,81.593,66.148,147.74,147.742,147.74"/>
<path fill-rule="evenodd" clip-rule="evenodd" fill="#008348" d="M82.575,0c45.591,0,82.571,36.976,82.571,82.571
	c0,45.599-36.98,82.575-82.571,82.575C36.98,165.146,0,128.171,0,82.571C0,36.976,36.98,0,82.575,0 M141.474,94.035
	c-5.352,27.65-29.692,48.537-58.898,48.537c-29.278,0-53.657-20.98-58.932-48.719l14.322-2.371h0.139
	c4.143,20.773,22.476,36.435,44.471,36.435c21.931,0,40.231-15.582,44.433-36.278L141.474,94.035z"/>
<path d="M632.281,27.86c6.178,0,11.033,1.741,14.563,5.21c3.531,3.469,5.296,8.262,5.296,14.367c0,6.08-1.777,10.873-5.32,14.38
	c-3.543,3.506-8.385,5.259-14.539,5.259c-6.154,0-10.984-1.753-14.502-5.247c-3.518-3.494-5.284-8.287-5.284-14.392
	c0-6.105,1.753-10.898,5.259-14.367C621.26,29.601,626.102,27.86,632.281,27.86 M632.281,34.786c-2.893,0-5.247,1.152-7.061,3.469
	c-1.802,2.305-2.709,5.345-2.709,9.096c0,3.739,0.907,6.755,2.709,9.059c1.814,2.292,4.168,3.445,7.061,3.445
	c2.942,0,5.308-1.14,7.098-3.408c1.777-2.28,2.672-5.308,2.672-9.096c0-3.8-0.895-6.853-2.697-9.133
	C637.564,35.926,635.198,34.786,632.281,34.786z M595.43,35.228v-6.399h8.912v32.719c0,6.914-1.716,12.075-5.149,15.483
	c-3.445,3.396-8.642,5.099-15.605,5.099c-2.231,0-4.438-0.196-6.632-0.588c-2.194-0.405-4.34-0.981-6.448-1.741l0.576-7.723
	c1.986,0.981,3.96,1.728,5.921,2.243c1.961,0.515,3.874,0.772,5.713,0.772c3.862,0,6.865-1.054,9.035-3.175
	c2.17-2.121,3.248-5.063,3.248-8.827v-4.057c-1.679,2.366-3.531,4.119-5.566,5.234c-2.035,1.128-4.327,1.692-6.865,1.692
	c-4.83,0-8.728-1.729-11.683-5.173c-2.954-3.445-4.438-7.993-4.438-13.644c0-5.725,1.483-10.371,4.45-13.939
	c2.966-3.567,6.84-5.345,11.609-5.345c2.795,0,5.259,0.601,7.392,1.814C592.035,30.888,593.873,32.739,595.43,35.228z
	 M585.415,35.154c-2.636,0-4.756,1.054-6.375,3.163c-1.618,2.109-2.427,4.891-2.427,8.361c0,3.616,0.809,6.497,2.427,8.642
	c1.618,2.145,3.776,3.212,6.485,3.212c2.623,0,4.805-1.054,6.509-3.175c1.716-2.121,2.574-4.855,2.574-8.213
	c0-3.702-0.833-6.632-2.476-8.778C590.478,36.22,588.234,35.154,585.415,35.154z M562.675,28.289l-0.355,8.618
	c-0.503-0.172-1.029-0.294-1.581-0.38c-0.552-0.086-1.128-0.122-1.728-0.122c-3.163,0-5.565,1.042-7.221,3.138
	c-1.655,2.096-2.476,5.149-2.476,9.145v17.42h-9.55V28.828h8.581v7.429c1.201-2.771,2.709-4.855,4.548-6.24
	c1.826-1.385,3.984-2.084,6.473-2.084c0.441,0,0.919,0.025,1.447,0.086C561.338,28.081,561.951,28.167,562.675,28.289z
	 M529.318,44.838v21.269h-8.471l-0.147-6.044c-1.557,2.305-3.396,4.046-5.529,5.235c-2.133,1.189-4.511,1.777-7.11,1.777
	c-3.739,0-6.755-1.091-9.059-3.285c-2.292-2.194-3.445-5.026-3.445-8.495c0-4.144,1.643-7.257,4.916-9.329
	c3.285-2.072,8.189-3.101,14.735-3.101h4.915v-0.539c0-2.538-0.797-4.499-2.403-5.909c-1.606-1.397-3.874-2.096-6.791-2.096
	c-1.655,0-3.371,0.245-5.161,0.748c-1.778,0.503-3.616,1.263-5.504,2.268l-0.147-6.816c2.231-0.919,4.413-1.581,6.571-2.01
	c2.158-0.429,4.327-0.65,6.497-0.65c5.615,0,9.697,1.361,12.271,4.07C528.031,34.651,529.318,38.954,529.318,44.838z
	 M516.753,48.283c-3.911,0-6.841,0.539-8.814,1.63c-1.973,1.091-2.966,2.721-2.966,4.879c0,1.618,0.564,2.942,1.692,3.96
	c1.115,1.018,2.599,1.532,4.413,1.532c2.636,0,4.793-0.932,6.497-2.783c1.704-1.863,2.55-4.266,2.55-7.208v-2.01H516.753z
	 M462.36,35.865c1.434-2.636,3.249-4.61,5.443-5.933c2.194-1.336,4.744-1.998,7.662-1.998c3.984,0,7.049,1.385,9.194,4.144
	c2.157,2.77,3.236,6.718,3.236,11.842v22.189h-9.55V45.954c0-3.396-0.527-5.897-1.581-7.515c-1.054-1.618-2.673-2.427-4.842-2.427
	c-2.611,0-4.671,1.017-6.179,3.064c-1.508,2.048-2.268,4.879-2.268,8.496v18.535h-9.55V45.954c0-3.371-0.527-5.872-1.594-7.502
	c-1.067-1.63-2.709-2.439-4.904-2.439c-2.611,0-4.671,1.017-6.178,3.064c-1.508,2.048-2.268,4.879-2.268,8.496v18.535h-9.476V28.828
	h8.655v6.755c1.41-2.538,3.187-4.45,5.345-5.725c2.158-1.287,4.671-1.925,7.539-1.925c2.562,0,4.83,0.699,6.816,2.084
	C459.835,31.403,461.331,33.352,462.36,35.865z M419.062,44.838v21.269h-8.471l-0.147-6.044c-1.557,2.305-3.396,4.046-5.529,5.235
	c-2.133,1.189-4.511,1.777-7.11,1.777c-3.739,0-6.755-1.091-9.059-3.285c-2.292-2.194-3.445-5.026-3.445-8.495
	c0-4.144,1.643-7.257,4.916-9.329c3.285-2.072,8.189-3.101,14.735-3.101h4.915v-0.539c0-2.538-0.797-4.499-2.403-5.909
	c-1.606-1.397-3.874-2.096-6.791-2.096c-1.655,0-3.371,0.245-5.161,0.748c-1.778,0.503-3.616,1.263-5.504,2.268l-0.147-6.816
	c2.231-0.919,4.413-1.581,6.571-2.01c2.158-0.429,4.327-0.65,6.497-0.65c5.615,0,9.697,1.361,12.271,4.07
	C417.775,34.651,419.062,38.954,419.062,44.838z M406.497,48.283c-3.911,0-6.841,0.539-8.814,1.63
	c-1.973,1.091-2.966,2.721-2.966,4.879c0,1.618,0.564,2.942,1.692,3.96c1.115,1.018,2.599,1.532,4.413,1.532
	c2.636,0,4.793-0.932,6.497-2.783c1.704-1.863,2.55-4.266,2.55-7.208v-2.01H406.497z M379.993,16.692l-0.65,8.079
	c-0.196-0.074-0.441-0.172-0.76-0.282c-4.732-1.778-8.434-2.66-11.094-2.66c-5.602,0-10.077,1.741-13.436,5.21
	c-3.347,3.469-5.026,8.091-5.026,13.853c0,5.467,1.728,9.893,5.185,13.288c3.469,3.396,8.03,5.1,13.706,5.1
	c1.9,0,4.744-0.662,8.557-1.974c1.336-0.454,2.341-0.772,3.016-0.968l0.858,8.078c-0.625,0.172-1.545,0.417-2.771,0.76
	c-4.622,1.312-8.128,1.974-10.518,1.974c-8.79,0-15.728-2.354-20.803-7.073c-5.075-4.72-7.613-11.107-7.613-19.185
	c0-8.066,2.55-14.576,7.637-19.516c5.087-4.94,11.83-7.417,20.239-7.417c2.611,0,6.142,0.65,10.592,1.937
	C378.436,16.263,379.393,16.521,379.993,16.692z M319.545,56.558h9.55v9.55h-9.55V56.558z M310.939,16.692l-0.65,8.079
	c-0.196-0.074-0.441-0.172-0.76-0.282c-4.732-1.778-8.434-2.66-11.094-2.66c-5.602,0-10.077,1.741-13.436,5.21
	c-3.346,3.469-5.026,8.091-5.026,13.853c0,5.467,1.729,9.893,5.185,13.288c3.469,3.396,8.03,5.1,13.706,5.1
	c1.9,0,4.744-0.662,8.557-1.974c1.336-0.454,2.341-0.772,3.016-0.968l0.858,8.078c-0.625,0.172-1.545,0.417-2.771,0.76
	c-4.622,1.312-8.128,1.974-10.518,1.974c-8.79,0-15.728-2.354-20.803-7.073c-5.075-4.72-7.613-11.107-7.613-19.185
	c0-8.066,2.55-14.576,7.637-19.516c5.087-4.94,11.83-7.417,20.239-7.417c2.611,0,6.142,0.65,10.592,1.937
	C309.382,16.263,310.338,16.521,310.939,16.692z M250.49,56.558h9.55v9.55h-9.55V56.558z M212.427,15.074h12.136l19.725,51.034
	h-10.849l-4.242-12.075h-22.225l-4.425,12.075h-9.979L212.427,15.074z M218.324,23.582l-8.557,22.948h16.782L218.324,23.582z"/>
<path d="M652.133,115.398l-0.219,6.499c-0.536-0.17-1.034-0.28-1.497-0.341c-0.45-0.061-0.901-0.085-1.351-0.085
	c-3.103,0-5.513,1.095-7.192,3.274c-1.691,2.191-2.531,5.306-2.531,9.346v18.388h-6.779v-36.655h6.134v7.533
	c1.022-2.665,2.446-4.698,4.259-6.097c1.813-1.399,3.931-2.105,6.328-2.105c0.377,0,0.815,0.024,1.302,0.073
	C651.074,115.276,651.585,115.325,652.133,115.398 M618.386,131.231c-0.243-3.663-1.181-6.474-2.812-8.434
	c-1.643-1.959-3.846-2.945-6.608-2.945c-2.726,0-4.99,1.022-6.766,3.055c-1.789,2.033-2.86,4.807-3.213,8.324H618.386z
	 M624.763,132.983v2.775h-25.958c0.268,3.919,1.521,6.961,3.76,9.139c2.251,2.178,5.294,3.262,9.115,3.262
	c1.692,0,3.359-0.219,5.026-0.657c1.667-0.438,3.371-1.132,5.136-2.057v5.854c-1.619,0.694-3.383,1.205-5.294,1.546
	c-1.911,0.353-4.029,0.523-6.329,0.523c-5.561,0-9.955-1.752-13.156-5.257c-3.213-3.505-4.819-8.275-4.819-14.311
	c0-5.659,1.57-10.222,4.722-13.679c3.153-3.456,7.266-5.184,12.353-5.184c4.807,0,8.58,1.606,11.33,4.819
	C623.388,122.956,624.763,127.373,624.763,132.983z M577.981,104.494v11.33h8.775v5.172h-8.775v19.009
	c0,2.848,0.414,4.868,1.253,6.073c0.828,1.205,2.191,1.801,4.089,1.801c0.475,0,1.022-0.061,1.643-0.195
	c0.62-0.134,1.314-0.341,2.069-0.621l0.073,5.342c-0.901,0.243-1.813,0.426-2.726,0.535c-0.925,0.122-1.85,0.183-2.799,0.183
	c-3.712,0-6.365-0.961-7.972-2.872c-1.606-1.911-2.409-5.111-2.409-9.614v-19.642h-7.375v-5.172h7.594v-9.054L577.981,104.494z
	 M556.988,130.331v22.149h-6.779v-20.616c0-3.748-0.669-6.535-1.996-8.361c-1.339-1.813-3.395-2.726-6.183-2.726
	c-3.042,0-5.452,1.144-7.192,3.444c-1.753,2.288-2.629,5.488-2.629,9.577v18.681h-6.779v-36.655h6.207v6.766
	c1.351-2.531,3.103-4.454,5.245-5.732c2.142-1.278,4.649-1.923,7.521-1.923c4.138,0,7.266,1.302,9.395,3.919
	S556.988,125.292,556.988,130.331z M511.254,131.231c-0.243-3.663-1.181-6.474-2.811-8.434c-1.643-1.959-3.846-2.945-6.608-2.945
	c-2.726,0-4.99,1.022-6.766,3.055c-1.789,2.033-2.86,4.807-3.213,8.324H511.254z M517.631,132.983v2.775h-25.958
	c0.268,3.919,1.521,6.961,3.76,9.139c2.251,2.178,5.294,3.262,9.115,3.262c1.692,0,3.359-0.219,5.026-0.657
	c1.667-0.438,3.371-1.132,5.135-2.057v5.854c-1.619,0.694-3.383,1.205-5.294,1.546c-1.911,0.353-4.029,0.523-6.329,0.523
	c-5.562,0-9.955-1.752-13.155-5.257c-3.213-3.505-4.82-8.275-4.82-14.311c0-5.659,1.57-10.222,4.722-13.679
	s7.266-5.184,12.352-5.184c4.807,0,8.58,1.606,11.33,4.819C516.256,122.956,517.631,127.373,517.631,132.983z M479.941,103.63
	l-0.28,6.134c-1.959-0.803-3.858-1.412-5.732-1.813c-1.862-0.402-3.761-0.609-5.683-0.609c-6.085,0-10.916,1.777-14.494,5.33
	c-3.578,3.554-5.367,8.349-5.367,14.385c0,6.109,1.777,10.916,5.342,14.409c3.566,3.493,8.434,5.245,14.592,5.245
	c1.947,0,3.846-0.183,5.708-0.548c1.85-0.377,3.675-0.913,5.489-1.631l0.207,6.341c-1.752,0.572-3.627,1.01-5.622,1.302
	c-2.008,0.304-4.114,0.45-6.353,0.45c-8.3,0-14.835-2.251-19.63-6.754c-4.783-4.503-7.18-10.649-7.18-18.425
	c0-7.862,2.446-14.129,7.326-18.79c4.88-4.661,11.452-6.985,19.703-6.985c2.203,0,4.32,0.158,6.328,0.487
	C476.302,102.474,478.176,102.961,479.941,103.63z M415.611,115.398l-0.219,6.499c-0.535-0.17-1.034-0.28-1.497-0.341
	c-0.45-0.061-0.901-0.085-1.351-0.085c-3.103,0-5.513,1.095-7.192,3.274c-1.691,2.191-2.531,5.306-2.531,9.346v18.388h-6.779
	v-36.655h6.134v7.533c1.022-2.665,2.446-4.698,4.259-6.097c1.813-1.399,3.931-2.105,6.328-2.105c0.377,0,0.815,0.024,1.302,0.073
	C414.552,115.276,415.063,115.325,415.611,115.398z M381.864,131.231c-0.244-3.663-1.181-6.474-2.812-8.434
	c-1.643-1.959-3.845-2.945-6.608-2.945c-2.726,0-4.99,1.022-6.766,3.055c-1.789,2.033-2.86,4.807-3.213,8.324H381.864z
	 M388.241,132.983v2.775h-25.958c0.268,3.919,1.521,6.961,3.761,9.139c2.251,2.178,5.294,3.262,9.115,3.262
	c1.692,0,3.359-0.219,5.026-0.657c1.668-0.438,3.371-1.132,5.136-2.057v5.854c-1.619,0.694-3.383,1.205-5.294,1.546
	c-1.91,0.353-4.028,0.523-6.328,0.523c-5.562,0-9.955-1.752-13.156-5.257c-3.213-3.505-4.819-8.275-4.819-14.311
	c0-5.659,1.57-10.222,4.722-13.679c3.152-3.456,7.266-5.184,12.353-5.184c4.807,0,8.58,1.606,11.33,4.819
	C386.866,122.956,388.241,127.373,388.241,132.983z M350.052,117.078l-0.535,5.841c-1.108-0.621-2.349-1.095-3.688-1.424
	c-1.339-0.329-2.738-0.499-4.186-0.499c-3.785,0-6.84,1.205-9.176,3.614c-2.349,2.422-3.517,5.574-3.517,9.468
	c0,3.992,1.132,7.192,3.408,9.614c2.264,2.41,5.294,3.615,9.066,3.615c1.387,0,2.762-0.17,4.162-0.523
	c1.387-0.341,2.811-0.852,4.26-1.546l0.353,5.988c-1.521,0.572-3.103,0.998-4.747,1.266c-1.631,0.28-3.322,0.414-5.062,0.414
	c-5.61,0-10.113-1.704-13.509-5.111c-3.395-3.42-5.099-7.934-5.099-13.569c0-5.61,1.752-10.125,5.257-13.545
	c3.505-3.42,8.142-5.136,13.886-5.136c1.691,0,3.298,0.122,4.819,0.377C347.265,116.165,348.701,116.554,350.052,117.078z
	 M313.262,130.331v22.149h-6.779v-20.616c0-3.748-0.669-6.535-1.996-8.361c-1.339-1.813-3.395-2.726-6.182-2.726
	c-3.042,0-5.452,1.144-7.192,3.444c-1.753,2.288-2.629,5.488-2.629,9.577v18.681h-6.779v-36.655h6.206v6.766
	c1.351-2.531,3.103-4.454,5.245-5.732c2.142-1.278,4.649-1.923,7.521-1.923c4.138,0,7.266,1.302,9.396,3.919
	C312.203,121.471,313.262,125.292,313.262,130.331z M270.326,130.197v22.283h-6.061v-6.134c-1.424,2.239-3.188,3.906-5.281,4.99
	c-2.081,1.095-4.515,1.643-7.266,1.643c-3.493,0-6.316-0.998-8.47-2.994c-2.154-1.996-3.225-4.6-3.225-7.813
	c0-3.992,1.631-7.046,4.88-9.152c3.261-2.117,7.959-3.176,14.093-3.176h4.77v-0.718c0-2.848-0.803-5.075-2.41-6.669
	c-1.606-1.594-3.821-2.385-6.645-2.385c-1.594,0-3.249,0.256-4.953,0.767c-1.716,0.511-3.48,1.278-5.281,2.3l-0.073-5.561
	c1.838-0.876,3.76-1.546,5.781-1.984c2.02-0.438,4.174-0.657,6.487-0.657c4.539,0,7.947,1.278,10.234,3.821
	C269.182,121.3,270.326,125.11,270.326,130.197z M259.459,134.371c-4.089,0-7.217,0.645-9.395,1.923
	c-2.178,1.29-3.262,3.128-3.262,5.525c0,1.837,0.62,3.334,1.85,4.515c1.242,1.181,2.848,1.764,4.82,1.764
	c3.103,0,5.598-0.998,7.485-2.994c1.874-1.996,2.811-4.673,2.811-8.02v-2.714H259.459z M235.216,103.63l-0.28,6.134
	c-1.959-0.803-3.858-1.412-5.732-1.813c-1.862-0.402-3.76-0.609-5.683-0.609c-6.085,0-10.917,1.777-14.494,5.33
	c-3.578,3.554-5.367,8.349-5.367,14.385c0,6.109,1.777,10.916,5.342,14.409c3.566,3.493,8.434,5.245,14.592,5.245
	c1.947,0,3.845-0.183,5.707-0.548c1.85-0.377,3.675-0.913,5.489-1.631l0.207,6.341c-1.752,0.572-3.627,1.01-5.622,1.302
	c-2.008,0.304-4.113,0.45-6.352,0.45c-8.3,0-14.835-2.251-19.63-6.754c-4.783-4.503-7.18-10.649-7.18-18.425
	c0-7.862,2.446-14.129,7.326-18.79c4.88-4.661,11.452-6.985,19.703-6.985c2.202,0,4.32,0.158,6.328,0.487
	C231.577,102.474,233.452,102.961,235.216,103.63z"/>
<text transform="matrix(1 0 0 1 159.0765 337.9246)" fill="#008348" font-family="'ArialMT'" font-size="9.134">Pantone: 356 CVC</text>
<text transform="matrix(1 0 0 1 159.0765 358.2127)" fill="#008348" font-family="'ArialMT'" font-size="9.134">CMYK: 100 / 0 / 91 / 27</text>
<text transform="matrix(1 0 0 1 159.0765 378.5008)" fill="#008348" font-family="'ArialMT'" font-size="9.134">RGB:  0 / 1</text>
<text transform="matrix(1 0 0 1 203.5795 378.5008)" fill="#008348" font-family="'ArialMT'" font-size="9.134">13 / 63</text>
<text transform="matrix(1 0 0 1 408.7133 337.9949)" font-family="'ArialMT'" font-size="9.134">CMYK: 0 / 0 / 0 / 100</text>
<text transform="matrix(1 0 0 1 408.7133 358.284)" font-family="'ArialMT'" font-size="9.134">RGB: 31 / 26 / 23</text>
<path fill-rule="evenodd" clip-rule="evenodd" fill="#008348" d="M164.118,303.871h34.733c2.773,0,5.042,2.21,5.042,4.91v3.273
	c0,2.701-2.269,4.91-5.042,4.91h-34.733c-2.773,0-5.042-2.21-5.042-4.91v-3.273C159.077,306.081,161.345,303.871,164.118,303.871"/>
<path fill-rule="evenodd" clip-rule="evenodd" d="M413.755,303.926h34.733c2.773,0,5.042,2.21,5.042,4.91v3.274
	c0,2.701-2.269,4.91-5.042,4.91h-34.733c-2.773,0-5.042-2.21-5.042-4.91v-3.274C408.713,306.135,410.982,303.926,413.755,303.926z"
	/>
<path fill="none" stroke="#000000" stroke-width="0.216" stroke-miterlimit="22.9256" d="M413.755,303.926h34.733
	c2.773,0,5.042,2.21,5.042,4.91v3.274c0,2.701-2.269,4.91-5.042,4.91h-34.733c-2.773,0-5.042-2.21-5.042-4.91v-3.274
	C408.713,306.135,410.982,303.926,413.755,303.926z"/>
</svg>
