<?xml version="1.0" encoding="utf-8"?>
<!-- Generator: Adobe Illustrator 17.0.0, SVG Export Plug-In . SVG Version: 6.00 Build 0)  -->
<!DOCTYPE svg PUBLIC "-//W3C//DTD SVG 1.1//EN" "http://www.w3.org/Graphics/SVG/1.1/DTD/svg11.dtd">
<svg version="1.1" id="Camada_1" xmlns="http://www.w3.org/2000/svg" xmlns:xlink="http://www.w3.org/1999/xlink" x="0px" y="0px"
	 width="800px" height="800px" viewBox="0 0 800 800" enable-background="new 0 0 800 800" xml:space="preserve">
<path fill="#FFFFFF" d="M1156.191,524.731c0-399.164-323.583-722.752-722.718-722.752c-399.154,0-722.742,323.588-722.742,722.752
	c0,399.145,323.588,722.732,722.742,722.732"/>
<g>
	<path fill-rule="evenodd" clip-rule="evenodd" fill="#231F20" d="M345.181,510.195l119.771,0.072v19.866l-119.768-0.031
		L345.181,510.195L345.181,510.195z M345.184,230.722l119.768-0.005v19.973l-119.768-0.061V230.722L345.184,230.722z
		 M105.645,510.166h119.786v19.98H105.645V510.166L105.645,510.166z M35.782,230.717h19.961h219.57v19.952h-99.804v209.177h-19.965
		V250.669H55.743v209.602H35.782V230.717L35.782,230.717z M275.313,344.653L398.087,467.46l13.993-14.15L295.29,336.373v-35.821
		h-19.978V344.653L275.313,344.653z M534.855,416.191l-0.046,44.079h-19.969v-35.8L398.087,307.53l13.993-14.148L534.855,416.191
		L534.855,416.191z M584.71,230.675l119.766,0.042v19.973l-119.766-0.051V230.675L584.71,230.675z M534.81,510.172v19.975h119.768
		v-99.828h119.773V300.577h-19.974v109.779h-99.8V300.577h-19.964v209.589L534.81,510.172L534.81,510.172z M345.194,230.717
		c-36.571,0-69.943,31.541-69.881,69.835h19.978c0-28.37,23.18-49.913,49.901-49.923
		C345.125,241.128,345.133,237.971,345.194,230.717L345.194,230.717z M55.743,460.271H35.782c0,38.47,31.382,69.858,69.863,69.858
		v-19.963C78.158,510.166,55.743,487.749,55.743,460.271L55.743,460.271z M754.377,300.577h19.974
		c0-38.479-31.388-69.86-69.875-69.86v19.952C731.954,250.669,754.377,273.089,754.377,300.577L754.377,300.577z M514.841,460.271
		c0,27.478-22.409,49.956-49.903,49.956v19.902c38.483,0,69.872-31.389,69.872-69.858H514.841L514.841,460.271z M514.841,300.57
		h9.987v-35.91c-12.239-20.315-34.523-33.95-59.891-33.95v19.958C492.432,250.669,514.841,273.089,514.841,300.57L514.841,300.57z
		 M534.81,300.538c0-27.485,22.413-49.899,49.9-49.899v-19.964c-25.364,0-47.646,13.638-59.882,33.95v35.913H534.81L534.81,300.538z
		 M295.272,460.296c0,27.483,22.42,49.899,49.909,49.899v19.961c-25.371,0-47.642-13.635-59.888-33.949v-35.911H295.272
		L295.272,460.296z M275.313,460.296c0,27.483-22.417,49.899-49.899,49.899v19.961c25.358,0,47.636-13.635,59.879-33.949v-35.911
		H275.313z"/>
</g>
</svg>
